/* XPM */
static char *_e732a7c1cde497fd3a519cb3f7bb94c7ImL6F7zil9TrsmM[] = {
/* columns rows colors chars-per-pixel */
"64 64 50 1 ",
"  c #A303FF",
". c #A60BFE",
"X c #AA11FE",
"o c #AA15FE",
"O c #AB1BFF",
"+ c #B22BFE",
"@ c #B430FE",
"# c #B736FE",
"$ c #B83AFE",
"% c #BB44FE",
"& c #BD46FE",
"* c #BD4BFF",
"= c #C65FFE",
"- c #D07EFE",
"; c #D386FE",
": c #DA8DFD",
"> c #D690FF",
", c #D997FF",
"< c #DB9EFF",
"1 c #DC9EFE",
"2 c #E09DFD",
"3 c #DFA6FE",
"4 c #DFA9FF",
"5 c #E2AFFE",
"6 c #E4B7FF",
"7 c #E8B6FD",
"8 c #E5B8FF",
"9 c #E6BCFF",
"0 c #E8C1FF",
"q c #E9C5FF",
"w c #EBC9FF",
"e c #ECCBFF",
"r c #EDCDFE",
"t c #EED2FF",
"y c #EFD5FF",
"u c #F0D6FF",
"i c #F1DAFF",
"p c #F2DCFE",
"a c #F3E1FF",
"s c #F4E1FF",
"d c #F6E6FF",
"f c #F6E8FF",
"g c #F7ECFF",
"h c #F8EBFE",
"j c #F8ECFE",
"k c #FAF3FE",
"l c #FBF4FF",
"z c #FCF7FF",
"x c #FDFBFE",
"c c white",
/* pixels */
"ccccccccchhccccccccccccxzxczllccclccccxcxxcxxxcccccxllzccccccccc",
"chccccccccccccccclcccccccxclcllcccccccxssxxcxccccccxllxccccccccc",
"hhhccccchhcccccclccccchxhxccclccccc3c$xsxxxxcccccccxlzcccccccccc",
"chccccccccccccccccccccxxxcccdllcc33cdd$xxsxccccccccxxxcccccccccc",
"ccccccchccchcccccccccxhhccccdcddclddcccxxcxxccccccckkkkkkccccccc",
"cccccccchcccchhccccccxxxcccccxxlcxcxlxxxxxcccdccccckdddkkccckkkc",
"cccccccccccchcccccccccccxxcxlxcdcdxxxxlx$xcccccccccdpppppkxjuidc",
"cccccccccccccccchhccchlhcchlxlddcxxxxc$$xxccldl1ddxdpptrikxjtypl",
"ccccccccccccchchhhcllchccchclldxd1c1cdccxxxkkcccscsssit80iffyipf",
"cccccccccchhhhhcchchlhchhldlccdcxxcx1dcxcckcxcddskssjar9qtidfgsp",
"cccccccccchhhhchhhhhlhcccclclcxxxxdxcxcxdxkcdcc11cjjxdp088edjfpp",
"cccccccchchhhhhcchhhh%llllllclcxxxxxcxxxxxrxxcdkkdd4xdi0550uffdd",
"cccccccccchhchhhhhll%%%hllllcdcxxdddxxxxxrrxrddxxjddddd04<8tsddf",
"cccccccccchhhhhhhlhll%%c%llllxxlxcdddddxxlaarr10xkxd4dd04,39ysfk",
"ccccccccccchhhhhhhhhlc%c%lllllclxx$$dd1laxaxx4xxkd4d4d44468wypsd",
"cccccccxchxchchchhcclcc%lllllllllx$c$cd$aaaxxx4xx44dd44ddr0rypps",
"cccccxccccchhccclhhcccllcl%l111l$x%$dxdx4xaa1crxxx4ddddddrwyippp",
"cccccccxcxclhchlhcchcccl%hl111ll$$$cc%%$$x;$xr4x4xdd0d#rdrwwiiip",
"cccccccchccchhchccch3333l%1%11%%cc%%%%a$;%;aax44 000d###rwwwwwti",
"cccccccxhchhchlhccjc3c3hhl3111%lcc%c%%%%$$;$$$44444d##ddwwyyy9ry",
"cccccccxccchccplpccchcch133%33$$$l%%%%%$;$a;; 4$0044d0##4w0y99yw",
"cccckckccxchchpppcccc33%ll%l1%$%@$$$%$$;$x$;aa;00 44d0##w000yrww",
"cccccxccxcccccccppc33ll%l33311$33%l%l$$x%%x;;;; 000###0yy0000www",
"ccccxxxxcxccccccxjc3c33l33%%%%33l$l111$%@@x;d0d0 0 0d0d000O00qww",
"cccccxcccxcxccxcccc3cc;l%%%3%%3l%l$$11@@@0;00d0000d0####yOOO00qw",
"cccxckxxccxxxcccp5cccc3;l%3%3%l%ll$1$1#10x0@d0d0d00000####O00q0q",
"ccckkccxcxcxcpxpx5c5llcl;553%3@l%%l11#11@@@0@##d000$000*r*0000qq",
"cckkkcxxxxxxxppxxxx53;;3;c3%3@3@@@@1#111@@@00@@0##000$#r**0000qq",
"cccckkxxxjjpppxpp5c51cc53c5%%$@@3;l###1#1#@00@0d###0r00rr**00iqq",
"xccxxkxjxppxxppp5xx55lcx;c@%@53%;;@111101##@0 d###r0rrrro**r*i>q",
"xxxxkjjxcxxxppcxxxx55cxx5%@%%5$3-3$@1@@#1@@ ## 0#rr###r##or#*q>q",
"xxxxjxjjjcpxxxppjcc5xxc;@5@%%%%-%--@@@@ @@@ @ # 0rr #rrr#o##**q*",
"xcccxjjjcjpjx7xxxj5x-xxc55;5;%55---$; @#@#      1r#1r#rr####oq**",
"xxxjjccjppxjj7jx7xxxc55ccc@@-5@3--j @$+@@##@     11#r*####oooo**",
"xcxccjjjjcjxjxj7xcxcccc5c;5--5--% -;  j ##1@ +   1 *00#####o##**",
"xxxxxxjpjpp7xxj7x7xxx@555@@@--@-3;  ;; $@@1  +1#1  #0r#########*",
"xxxxcxxjjx777j7xxx7cxc@x5;5@;@@@--;;@$$  +  #+111  #r  *ooo #***",
"xxxxxjxxxx7777x5j77xxx@c555@@;@@@$;$ # @ @## ##+    oo ooooo##*#",
"xxx1xxxxxx777xx77cxccx55;5@;@@@@@@@;@#@@@+ # ## # #ooor*oo*o#**#",
"x1x1xxxxxxxxxx55cc75xx%%c;;;;;@@@@;;; #@ + @ # #    oooroo**o#**",
"xx1xxxxx7x7xx7x75xjk7k%%%ck@@@@@@@;$$@@@@@@#   ## #  o*  ***o#O#",
"2xxxxxxxx77xxxxxc55555%5%%cc@@@@;#@@#@#@#@  @           ****OO##",
"x2xxxxx:5xxx7x555x5%k55kck%@@%@ @#;$@@@@@@             *  ** OO#",
"1112x:::15x55x5xx55kk%%5%ckk;@@@;@@;@@  ;@@      ##   *   *  OOO",
"221x11x22x1551x1%%kk5%%55%k@;;;;;; %@@; ++++  ++              OO",
"21121:1$7$5551x5%k5k5k 55%5k%5;;%;  @ @++++               OOOOOO",
"21x21:::xx55555555% 5 55555..55;;    %  ++                OOOOOO",
"11121:::1x5 5755%555kk555 %5555 5 ; ;; %                  OOOOOO",
"112:::::x=71    55  k5k@%%55.;5  .;;  %    ++              OO OO",
"121:::::=:1=1==  555  =%%% ..;%  %;;         +          OOO   OO",
"211:111:::===   5 51.=%55%.55;%                          O     O",
"111177:$722======1+1..=%%%5...% %. ;; &                 OOO  OOO",
":1117::$$====.11111.  %.%%%. %.     ..&&                 O  OO  ",
":1111::7=======1= ......%%%...   .;.. &                        O",
":$11111:::==.:==+++......%%.  .   .                             ",
"$:11:1:::::=.:. ++.....  %.         & &&                        ",
"$$1:::::::=:= ...++....%. %.        & &                         ",
"$:1$:::$::=: .=...+..%%. %%         &&      &                   ",
":$$$:$:11$=$ $..+  . %.    % &    & &&&&&   &&                  ",
"::$1:111.1$:..$.. .        .  &     && &&  &                    ",
"$$:$1:11.$$$$. ..+.+. .    ..&      &&&&&& & &                  ",
"$:$$$$$1.$$$$.. $+          ..& &     &&&&&  &                  ",
"$.$$$$$..$$.....               &&&&&&&  &&&  &&                 ",
"$$..$.$$$$$$.$..               & &&X  & &&&                     "
};
