/* XPM */
static char *cc9a9a6df70144a8b3919b7802d1b9a0qZG3QOsXETPk0TWa[] = {
/* columns rows colors chars-per-pixel */
"64 64 150 2 ",
"   c #030D16",
".  c #050F19",
"X  c #06121C",
"o  c #09141E",
"O  c #071622",
"+  c #091621",
"@  c #071925",
"#  c #0A1925",
"$  c #071B2B",
"%  c #0B1D2B",
"&  c #101F2D",
"*  c #0B1F30",
"=  c #0D202E",
"-  c #11212F",
";  c #0D2233",
":  c #0E2639",
">  c #0F293D",
",  c #122433",
"<  c #152837",
"1  c #122739",
"2  c #132A3C",
"3  c #192E3E",
"4  c #1A303F",
"5  c #0F2B40",
"6  c #122D42",
"7  c #192F41",
"8  c #163145",
"9  c #1B3245",
"0  c #173348",
"q  c #1C364B",
"w  c #1F394D",
"e  c #1E3B51",
"r  c #203445",
"t  c #203749",
"y  c #203A4F",
"u  c #213C51",
"i  c #223F59",
"p  c #254056",
"a  c #294257",
"s  c #274259",
"d  c #26415A",
"f  c #26435A",
"g  c #27435A",
"h  c #27435B",
"j  c #254159",
"k  c #27445B",
"l  c #27435C",
"z  c #27455D",
"x  c #25425A",
"c  c #28455C",
"v  c #28455D",
"b  c #28445E",
"n  c #29465F",
"m  c #29455D",
"M  c #2D485F",
"N  c #264760",
"B  c #294761",
"V  c #2B4861",
"C  c #2B4961",
"Z  c #2A4862",
"A  c #2B4962",
"S  c #2B4A63",
"D  c #2C4A62",
"F  c #2D4B62",
"G  c #2B4B64",
"H  c #2D4B65",
"J  c #2B4D66",
"K  c #2D4C66",
"L  c #2E4E67",
"P  c #2F4E67",
"I  c #2D4B64",
"U  c #2F4E68",
"Y  c #2F4E68",
"T  c #304D66",
"R  c #314F67",
"E  c #324F67",
"W  c #304E66",
"Q  c #314D68",
"!  c #304E68",
"~  c #314E69",
"^  c #304F69",
"/  c #314F69",
"(  c #2F5069",
")  c #2F506C",
"_  c #30516A",
"`  c #31506B",
"'  c #32516B",
"]  c #31526C",
"[  c #33536C",
"{  c #33526D",
"}  c #33536E",
"|  c #35546F",
" . c #33526C",
".. c #355571",
"X. c #365672",
"o. c #365772",
"O. c #375773",
"+. c #365671",
"@. c #385772",
"#. c #365874",
"$. c #375874",
"%. c #375875",
"&. c #375874",
"*. c #385874",
"=. c #385975",
"-. c #3A5974",
";. c #385A75",
":. c #3A5A75",
">. c #395A76",
",. c #395B77",
"<. c #3B5A76",
"1. c #3A5B76",
"2. c #3B5C76",
"3. c #395A75",
"4. c #375B78",
"5. c #3A5C78",
"6. c #3B5C78",
"7. c #3A5D78",
"8. c #3B5D78",
"9. c #3B5C79",
"0. c #3B5D79",
"q. c #3A5E78",
"w. c #3A5D7A",
"e. c #3B5D7A",
"r. c #3A5C7B",
"t. c #3B5E7B",
"y. c #3C5C78",
"u. c #3C5C79",
"i. c #3C5E79",
"p. c #3C5C7A",
"a. c #3D5D7A",
"s. c #3C5E7A",
"d. c #3C5F7B",
"f. c #3D5F7B",
"g. c #3C5F7C",
"h. c #3B5D7A",
"j. c #3C607B",
"k. c #3C607C",
"l. c #3E617C",
"z. c #3E607D",
"x. c #3E617E",
"c. c #40627F",
"v. c #3F6280",
"b. c #3F6380",
"n. c #3F6583",
"m. c #3F6281",
"M. c #406180",
"N. c #406381",
"B. c #416583",
"V. c #416381",
/* pixels */
"# ; > ; X ; : % : : * # o : 2 > > ; = ; : > : q 1 ; q u y u <.<.# ; 8 u y y y y y w ^ X.7 * 6 w y y y w b b.9 O : ; 6 # o ; : > ",
"% % , # % % = + % = % % % = % = , % # + = , % % # + 2 w y w ^ <.% 2 w y y y y y y y w ] u + : q u y y y q 8.9 % - % % # % % , = ",
"8.8.<.3 ( y.y.b j 2.8.8.8.8.S | y.y.] G y.y.P ' 3 X : 8 u w #.#.; 6 y y y y y y y u q P T # > q u y y w j N.9 j z.8.S u <.8.8.^ ",
"U z g., > j ^ <.X.l j j b <.<.X.j j 8.b.K b y.n.3 % 6 w w F z.X.= > 9 y y y y y y w u 8.T % : 6 w y w u <.X., : j j ] y.S i S l.",
"w u 8., % 0 w p p q w w y u w w w w j S w w k g.7 ; 8 u w k 8.#.O % > q u y y y y w u z.P X ; 6 w u w p y.J , # 8 y u F u w w k ",
"q ' N., : > 8 w u u u w q w u y w q 6 w u w w y.9 : q w w w S <.# ; 0 y y y y y y y w ] T % 6 q y y y w ' V.7 ; 6 q 8 q u w w w ",
"; q ) < + 2 > 6 8 8 8 2 ; 6 0 8 > ; > 8 8 > 6 J 3 % 6 6 2 8 q P , > q u y y y y y u q P T % 8 u y y y w p z.9 % 6 6 > 6 q 6 ; 6 ",
"X X % + X X % = O % + + o % ; ; % X % ; ; # % : # X = : # X $ % % > 8 u y y y y y y w } T # 6 w y y y y w 8.r   % ; # @ % O X % ",
", F b b F F 3 X o o o + X o o o o o o o o o o o o + o o 1 a a a # : 6 w y u y u u w p z.P X : q u y y y u 5.9 y T u 2 y M M p 2 ",
"% N 2.z.] &.z.u X , q 2 % O # # o % # o o o o o o o o o 2 u B *.# ; 6 w u q 6 0 9 6 u <.' X : 8 q w w q K 8.; q } *.| z.X.8.V.] ",
"% > e ] j w ] z.7 ' F q w 9 9 y , : 6 2 9 9 % # + o o o % > 8 P , > 6 2 2 6 ; : 5 : 2 q j % > : : 6 2 6 6 j 3 * 8 u ] b w u S z.",
"+ 2 w y u y w <.K | u w u q 6 w 9 6 u u u u y u 2 + o o o # % 3 % ; # X X % O + % o O % % X # o # % X % O % # % 6 w w w y w U ] ",
"o : q y y y y <.P P e y y u w w u w 9 u u y y y u < o o p | ' P T T ^ | q a ' u w g ' ' F F [ ' ^ ' b 9 y , X # * 6 u y y y <.P ",
"% 5 8 u y y u 8.u <.b w y y u u u , , 7 6 w y w u 9 + o 6 S ' c.z.z.#.X.q P z.y.t.z.N.X.P P ] z.z.z.z.X.z.<., + % , u y y w b z.",
"# > 6 y y w b g.9 F w y y y y u 9 7 q 9 2 6 w u y w % o : > q P P u u u 2 u u u u b ] u q q y u z y.<.j u 8.q % # w q y y y u ] ",
"o % > q u y y 5.9 ' b u y u y w w w u w y w w 8 q u % o % 6 w w w w u y 8 w w w w w w y u u y w w a j w w 5.p : ; 3 O 2 u y u ' ",
"o % 2 0 u q w y.u @.| j w q u p b b w w i p u 6 w 8 ; o # 6 w u y y u M 2 8 u u y y u y y y y y y w y w P z.9 6 ; O + o 9 w j g.",
"# : 2 6 8 > 6 z U X.z i b *.<.#.] <.&.| X.X.X.| #.#.P % # 6 w y y w i b 9 q 9 y y y y y u y y u y y u w P X.; 6 > : : O 9 u | 8.",
"+ o o % % # % % 2 t u K K b q 2 2 q ^ ] l j b P b u p < % 6 q u y y u 9 w u 7 q u w i u w u u q w y y y u X.3 6 > > > % 9 ^ N.b ",
"< ^ b T ' S a 2 ^ g 9 w [ ' K M < F X.U ] ' P X.F a S 9 : 6 6 w y y q w u y u y y y u b q q w 8 w y y y w K u : 2 > > % 7 i X.<.",
"% u u S U u P , e <.y.X.' U N.' * j U u a p u P b z 8.u # 6 6 w y y u y y u y y y y y y w 8 8 w u y y u w b j 2 > > 2 > ; w j g.",
"% > 6 w 9 p <.% ; w b P w q F j # : 8 u w q q w y q | y * 6 q u u w 8 6 8 q q y u u w 8 9 F 2 q 8 u w q q ' l 6 > > > > + , S b.",
"# : 5 8 6 8 ( % % 8 w w u w b b X : 8 8 8 6 6 8 8 6 e y % 6 6 8 8 6 > ; > 5 6 8 8 8 6 > 8 t : 5 > 6 6 5 : e y 9 8 6 6 6 ; o , P ",
". o ; O + O ; + ; q u y y w P <.O % % X # * * % X X % % X * % X # % X X o % ; @ X % % # , # % ; % X X % # # O < 2 8 ; : 6 : . o ",
"F 9 2 a M a g # : u y y y u 8.X.2 M u 2 7 g M < 9 P a 7 p M M 9 , F M F u 3 u M g a g 2 2 u F b M u < M M i 7 a g S F y w ( F w ",
"<.8.X.z.] U g., > 6 w y y y ] b % G V.<.X.X.z.a : ] X.z.g.] #.<., B X.X.z.t.b.z.k b z.X.U N.g.] b.*.; G X.t.z.y.b b z.n.8.' #.b.",
"j <.' u q j <.= > > 9 y u q b X.% > p X.<.w ^ M $ 6 w U b 9 j *.= : 8 w P } j u w w j <.X.j i u 8.b + ; 8 b <.p w w u U b q u j ",
"y y w w y j 2.# ; 6 6 8 0 2 e | # ; 8 u w u <.u X : w w w w b <.O % 6 w w w w w y y w y w w q ' b.u o % 9 y y w y u w w w u y w ",
"y y u u w X.S + X # ; ; O X = : + % 8 u w a z.6 X 2 w y y u #.X.# % > w u u u y y y y y y u w i y.' O : q u y u u y y w y y y y ",
"y u q 0 w ' ] % q i u u u u 7 9 O ; 0 u w u <.u X 6 w u 9 ^ 8.e o : w u y 0 w u y y y y y y y u 8.| = 6 y u w 9 q y w u y w y u ",
"8 q 2 : 8 e &.- q ^ P p u ] X.X., 2 w y y w p a O 8 j 8 q F g.b + ; q u y w w w u q q u y y y w S j # 6 w q 6 : 6 6 8 w 6 6 8 w ",
"; % + . % : 8 # % 6 6 2 : 6 2 j % : u y y q T m $ i y 9 u w K y.# ; 8 u w p u q q 0 w y y u u u X.P X @ : ; % X % % @ : ; + @ % ",
"2 % < 9 7 # X o + + + + + o X O o : u y w F z.u X 9 3 9 w w P ] O + 2 8 6 q u S 2 8 y y y w q q ..X., 9 9 9 , % % , 9 9 9 3 3 3 ",
"y.S &.z.y.3 q ; + o o + = # O o o : q u w b z.i X ; 9 q 8 w 2.B X + : 5 > 2 6 ; o ; 8 8 8 2 : : 8 j 2 #.y.V.8.&.S <.z.8.8.8.z.b.",
"| 8.b j <.9 8.u 9 2 < 8 w y 7 o o : 6 0 8 > N F X : 6 q 6 6 e ] # X # ; % o + + o # ; = ; % o + = # % 6 u F T | y.^ u y u w u X.",
"u j w i y.2 ] j y u w u y u 6 # o X % O X + % ;   X ; ; O % ; : % % O o X o o o o o X X X o o o o o + : q w q y j w w y y y w u ",
"y w w P } , b ] w w 8 q u w = X , u y y y 2 9 y u 9 2 y y y 2 , u j 6 ; ; , + % O # 2 2 , o o o + + o + 9 u y y w u u y y y y w ",
"q y y 8.S 2 ' P w y w q w u 2 + O a 5.<.B.t.z.<.<.z.t.y.<.V.8.S K ' w w e y q q 9 q w u u 6 6 q , o o % 8 u u q y w q u u y y u ",
"> 8 q S | e y.j u b ' ^ F u q % X + w u b ^ ' w w ^ ' u w S 2.X.i ] w w w q w y u y 8 2 w y w y 9 O o : 6 8 8 > 8 8 6 8 9 y u q ",
"# ; ; : w u z.' P ' S z.<.<.g.u o o < u q w y y y w w w y q B <.b n.] z b B F <.<.S F i w j F b ] t # 6 ; ; # # ; ; : > > 6 : ; ",
"# + + ; % , 7 < 2 8 0 9 8 u w w + X , u y y y y y y y y u w b #.q y u K S p 9 9 9 t q 7 , 2 9 j U t % % + O % % % O + = , ; % # ",
"| e T <.u.| j *.' 2 &.<.z M <.' # X < u w y y y y y y y u w b @.2 [ *.<.^ q p u 3 <.X.*.j w F #.<.@.<.S q , [ U X.[ w ^ 2.<.5.5.",
"8.8.' j k <.8.' | % 0 ' <.' ' K = + - u y y y y y y y y y w X.@.% q ^ 8.8.X.N.M % u z ^ g.y.8.K j b #.y.F % q e p 8.<.<.S l l ' ",
"j P w w q p i b p % 6 q e y U b 9 ; # 2 y u u y y y y y y u X.u % > 9 p j S 8.b # > q y F T u w w w w X.y., > y w j K e w w w w ",
"8 q w u w q q K M % q u y q P *.; > ; + % 3 9 u u y y y y u <.b % : 8 y w q ] F X : w u w w y y u u w b y.- % 8 u y w w 8 w u u ",
"; > 6 0 6 : 6 e P % : 9 w 6 0 U , 6 > : : % X 2 y y y y y w ^ 8.O ; 6 w u w | F   % w y y u y y y y y u | - X : 6 8 0 6 > 6 9 8 ",
"o # ; : % + % ; % o o % : % # ; , 0 > 2 : : # + q u y y u w j 5.# % > q w j 8.9 + > 0 y y y y y y y u q S , X # + % : ; % : % + ",
"o o o o o o o o o o o o o o o X , u > > : + + 3 u w y y y w [ <.O % > w w j z.u ; 5 6 y y y y y y y w u X.- X X o o o o o o o o ",
"% + o X # % % % % o o o % % + X , w > > 6 % < u w u u u w j <.u # : q y y q X.F % 6 w y y y y y y w u 8.K 9 p % + o o o % % o o ",
"0 2 , % q w w q 6 : % , q 6 = X , 6 > > 2 % 2 u u q 9 9 q j <.j % 6 u y y w X.a % 8 u y y y y y y w u <.K k z.u 9 , # 7 w w 1 % ",
"u u u w u y y y u u w y u w # X , q > > 2 ; % 9 2 % ; % % 2 9 T , > q u w j g.7 + > w u y y y y y u w p 2.j X.<.j w 9 u u u w 8 ",
"y u y y y u q 8 w q w y y y # X & 9 q 2 : # # % % % ; % % % . o % > 8 u y u } q o : 6 y y y w y y y w b z.i j 8.g w u w q u y u ",
"u 7 q u w q y w 8 8 0 y u y # X # = > > # + % o # y u y 3 , 7 t + % 8 u y q ] F   % 6 y u w 8 y y y w | P 7 ' } w u y q 8 8 w y ",
"y 7 2 u 9 q y w y u u y u y = X 7 z 6 q 6 q 8 O + j 4.y.y.U <.g.O # 2 w y b z.b O 2 w 9 q 9 w u y y w ' j , y.i w 2 9 u y q q y ",
"j ' w 8 q u w j j q w u w w 6   9 ] w w 8 q u 2 + : 6 i <.] 5.*.% : 6 w u b 5.m % 0 w j 2 9 0 q u u q b | 9 y.u 6 u T e w w u u ",
"y.<.<.b <.y.2.y.8.B F 2.K b j O 4 g.B u u b u e # % 6 w u y } ] % > 6 6 9 : z M % 6 6 j 2 8 : 6 q q 6 w *.b <.l.B #.8.8.K b &.8.",
"p w P g b b k z b T @.P j ] 5.2 , ^ X.F T ' b ^ , . 1 u y q b b X X % : % X # % . X 6 9 % % X = : ; # % 2 9 y F b w b *.] *.] j ",
"- , b K w X 9 b q 6 9 F b u u S p 9 , 2 t t y 9 # + 2 u y w b K - 9 , 9 2 , , 3 9 9 < , = < t 2 , , = 9 9 9 % q K b u 7 3 p F b ",
"j ] y.b.t # } 8.' G z.5.g.5.X.c.8.z.U X.z.<.<.z.< % 6 0 u w X.<., ] ] 2.z.' ] b.5.8.<.U 9 2 5.#.^ z | #.g.5., p 8.y.<.X.z.b.N.y.",
"y.y.j #.y % q p 2.<.S w u X.z.] e b T T j w u 8.7 : > 9 y b <.b # : w u P 8.| z y w | N.w X 2 u ' y.b w u ) , % 8 j ] z.g.[ F p ",
"S b q 5.y * 6 q u u q y w u j u y w w q w y w 8.3 : > 9 w F g.j o ; 2 q w u u w u w j z.F o 6 w u i w w u g.9 X 1 w w p j u q w ",
"w w p z.t X : w y w u y y y w y y y u u u w b b.3 % 6 q u w P y.# + 6 w u w y u y w u z.^ X % q u w y u X.] 2 O 2 y y w w y u y ",
"y w ' V.t   ; w y y y y y y y y y y y y u q ' b.< # w u y w K X.# ; 9 u y y y y y y w ' ' + % 6 w u w u <.X.< : 5 9 u y y y y y ",
"w u 2.b.t X : 6 u y y y y y y y y y y y w u &.S % % 8 y y u X.u % > 8 u y y y y y y u &.p # > 8 y y y w u b.9 % > 8 u y y y y y "
};
